<svg xmlns="http://www.w3.org/2000/svg" viewBox="0 0 32 32" width="64" height="64" role="img" aria-label="GTM Shelf"><title>GTM Shelf</title><rect width="32" height="32" rx="7" fill="#2F45E0"/><g transform="translate(16 16) scale(0.88) translate(-16 -17)"><path fill="#FFFFFF" fill-rule="evenodd" d="M6 3.5H13A3 3 0 0 1 16 6.5V22.5A3 3 0 0 1 13 25.5H6A3 3 0 0 1 3 22.5V6.5A3 3 0 0 1 6 3.5ZM5.851 14.449L9.373 17.97L14.115 12.376A1.2 1.2 0 0 0 12.285 10.824L9.227 14.43L7.549 12.751A1.2 1.2 0 0 0 5.851 14.449Z"/><path fill="#FFFFFF" fill-opacity=".5" d="M19.5 9.5H22A2 2 0 0 1 24 11.5V23.5A2 2 0 0 1 22 25.5H19.5A2 2 0 0 1 17.5 23.5V11.5A2 2 0 0 1 19.5 9.5ZM27 15.5H27.5A1.5 1.5 0 0 1 29 17V24A1.5 1.5 0 0 1 27.5 25.5H27A1.5 1.5 0 0 1 25.5 24V17A1.5 1.5 0 0 1 27 15.5Z"/><path fill="#FFFFFF" d="M3.5 27.5H28.5A1.5 1.5 0 0 1 30 29V29A1.5 1.5 0 0 1 28.5 30.5H3.5A1.5 1.5 0 0 1 2 29V29A1.5 1.5 0 0 1 3.5 27.5Z"/></g></svg>
